<svg xmlns="http://www.w3.org/2000/svg" version="1.1" xmlns:xlink="http://www.w3.org/1999/xlink" xmlns:svgjs="http://svgjs.dev/svgjs" viewBox="0 0 10.464475911434135 3.748023734505078"><g transform="matrix(1,0,0,1,2.706914734248154,1.337011867252539)"><g><path d=" M 0.9067500000000001 0.6232499999999999 Q 0.9615 0.6944999999999999 0.9615 0.7859999999999998 Q 0.9615 0.9209999999999998 0.8685 0.9974999999999998 Q 0.7755 1.0739999999999998 0.6075 1.0739999999999998 L 0.084 1.0739999999999998 L 0.084 0.016499999999999737 L 0.591 0.016499999999999737 Q 0.753 0.016499999999999737 0.8452500000000001 0.0884999999999998 Q 0.9375 0.16049999999999986 0.9375 0.2909999999999998 Q 0.9375 0.3839999999999998 0.88875 0.4462499999999998 Q 0.84 0.5084999999999998 0.759 0.5309999999999998 Q 0.852 0.5519999999999998 0.9067500000000001 0.6232499999999999 M 0.378 0.4364999999999998 L 0.5265 0.4364999999999998 Q 0.6375000000000001 0.4364999999999998 0.6375000000000001 0.34499999999999986 Q 0.6375000000000001 0.25049999999999983 0.5265 0.25049999999999983 L 0.378 0.25049999999999983 L 0.378 0.4364999999999998 M 0.66 0.7439999999999998 Q 0.66 0.6959999999999998 0.63075 0.6704999999999999 Q 0.6015 0.6449999999999998 0.5475 0.6449999999999998 L 0.378 0.6449999999999998 L 0.378 0.8369999999999999 L 0.549 0.8369999999999999 Q 0.66 0.8369999999999999 0.66 0.7439999999999998 M 1.38303076171875 0.016499999999999737 L 1.38303076171875 1.0739999999999998 L 1.08903076171875 1.0739999999999998 L 1.08903076171875 0.016499999999999737 L 1.38303076171875 0.016499999999999737 M 2.346005859375 0.016499999999999737 L 2.346005859375 0.25049999999999983 L 2.064005859375 0.25049999999999983 L 2.064005859375 1.0739999999999998 L 1.7700058593749999 1.0739999999999998 L 1.7700058593749999 0.25049999999999983 L 1.491005859375 0.25049999999999983 L 1.491005859375 0.016499999999999737 L 2.346005859375 0.016499999999999737 M 2.74801171875 0.2519999999999998 L 2.74801171875 0.4244999999999999 L 3.08551171875 0.4244999999999999 L 3.08551171875 0.6479999999999999 L 2.74801171875 0.6479999999999999 L 2.74801171875 0.8384999999999998 L 3.13051171875 0.8384999999999998 L 3.13051171875 1.0739999999999998 L 2.45401171875 1.0739999999999998 L 2.45401171875 0.016499999999999737 L 3.13051171875 0.016499999999999737 L 3.13051171875 0.2519999999999998 L 2.74801171875 0.2519999999999998 M 4.0972221679687495 0.6232499999999999 Q 4.15197216796875 0.6944999999999999 4.15197216796875 0.7859999999999998 Q 4.15197216796875 0.9209999999999998 4.05897216796875 0.9974999999999998 Q 3.96597216796875 1.0739999999999998 3.7979721679687497 1.0739999999999998 L 3.27447216796875 1.0739999999999998 L 3.27447216796875 0.016499999999999737 L 3.78147216796875 0.016499999999999737 Q 3.94347216796875 0.016499999999999737 4.03572216796875 0.0884999999999998 Q 4.12797216796875 0.16049999999999986 4.12797216796875 0.2909999999999998 Q 4.12797216796875 0.3839999999999998 4.07922216796875 0.4462499999999998 Q 4.03047216796875 0.5084999999999998 3.9494721679687497 0.5309999999999998 Q 4.04247216796875 0.5519999999999998 4.0972221679687495 0.6232499999999999 M 3.56847216796875 0.4364999999999998 L 3.7169721679687497 0.4364999999999998 Q 3.82797216796875 0.4364999999999998 3.82797216796875 0.34499999999999986 Q 3.82797216796875 0.25049999999999983 3.7169721679687497 0.25049999999999983 L 3.56847216796875 0.25049999999999983 L 3.56847216796875 0.4364999999999998 M 3.85047216796875 0.7439999999999998 Q 3.85047216796875 0.6959999999999998 3.8212221679687497 0.6704999999999999 Q 3.79197216796875 0.6449999999999998 3.7379721679687496 0.6449999999999998 L 3.56847216796875 0.6449999999999998 L 3.56847216796875 0.8369999999999999 L 3.7394721679687497 0.8369999999999999 Q 3.85047216796875 0.8369999999999999 3.85047216796875 0.7439999999999998 M 4.5735029296875 0.8489999999999999 L 4.9020029296875 0.8489999999999999 L 4.9020029296875 1.0739999999999998 L 4.279502929687499 1.0739999999999998 L 4.279502929687499 0.016499999999999737 L 4.5735029296875 0.016499999999999737 L 4.5735029296875 0.8489999999999999 M 5.308544677734375 0.016499999999999737 L 5.308544677734375 1.0739999999999998 L 5.014544677734374 1.0739999999999998 L 5.014544677734374 0.016499999999999737 L 5.308544677734375 0.016499999999999737 M 5.571019775390624 0.9967499999999998 Q 5.452519775390624 0.9089999999999998 5.443519775390625 0.7454999999999998 L 5.757019775390624 0.7454999999999998 Q 5.761519775390624 0.8009999999999998 5.790019775390625 0.8264999999999998 Q 5.818519775390625 0.8519999999999999 5.863519775390625 0.8519999999999999 Q 5.9040197753906245 0.8519999999999999 5.930269775390625 0.8317499999999999 Q 5.956519775390625 0.8114999999999999 5.956519775390625 0.7754999999999999 Q 5.956519775390625 0.7289999999999999 5.913019775390625 0.7034999999999998 Q 5.869519775390625 0.6779999999999998 5.772019775390625 0.6464999999999999 Q 5.6685197753906245 0.6119999999999999 5.604769775390625 0.5797499999999998 Q 5.541019775390625 0.5474999999999999 5.493769775390625 0.48524999999999985 Q 5.446519775390625 0.4229999999999998 5.446519775390625 0.3224999999999998 Q 5.446519775390625 0.2204999999999998 5.497519775390624 0.14774999999999983 Q 5.548519775390624 0.07499999999999984 5.638519775390624 0.03749999999999987 Q 5.728519775390625 -2.220446049250313e-16 5.842519775390625 -2.220446049250313e-16 Q 6.027019775390625 -2.220446049250313e-16 6.1372697753906245 0.08624999999999983 Q 6.247519775390625 0.17249999999999988 6.2550197753906245 0.3284999999999998 L 5.935519775390625 0.3284999999999998 Q 5.934019775390625 0.28049999999999986 5.906269775390625 0.25649999999999984 Q 5.878519775390624 0.23249999999999982 5.8350197753906246 0.23249999999999982 Q 5.802019775390624 0.23249999999999982 5.781019775390624 0.2519999999999998 Q 5.760019775390624 0.27149999999999985 5.760019775390624 0.3074999999999998 Q 5.760019775390624 0.3374999999999998 5.783269775390624 0.35924999999999985 Q 5.806519775390624 0.3809999999999998 5.841019775390625 0.3967499999999998 Q 5.875519775390624 0.41249999999999987 5.943019775390624 0.4364999999999998 Q 6.0435197753906245 0.47099999999999986 6.108769775390624 0.5047499999999998 Q 6.174019775390625 0.5384999999999999 6.221269775390625 0.5992499999999998 Q 6.268519775390625 0.6599999999999998 6.268519775390625 0.7529999999999999 Q 6.268519775390625 0.8474999999999998 6.221269775390625 0.9224999999999999 Q 6.174019775390625 0.9974999999999998 6.084769775390624 1.041 Q 5.995519775390624 1.0844999999999998 5.874019775390624 1.0844999999999998 Q 5.689519775390624 1.0844999999999998 5.571019775390624 0.9967499999999998 M 6.499512451171874 0.9967499999999998 Q 6.381012451171874 0.9089999999999998 6.372012451171875 0.7454999999999998 L 6.685512451171874 0.7454999999999998 Q 6.690012451171874 0.8009999999999998 6.718512451171875 0.8264999999999998 Q 6.747012451171875 0.8519999999999999 6.792012451171875 0.8519999999999999 Q 6.8325124511718744 0.8519999999999999 6.8587624511718746 0.8317499999999999 Q 6.885012451171875 0.8114999999999999 6.885012451171875 0.7754999999999999 Q 6.885012451171875 0.7289999999999999 6.841512451171875 0.7034999999999998 Q 6.798012451171875 0.6779999999999998 6.700512451171875 0.6464999999999999 Q 6.597012451171874 0.6119999999999999 6.533262451171875 0.5797499999999998 Q 6.469512451171875 0.5474999999999999 6.422262451171875 0.48524999999999985 Q 6.375012451171875 0.4229999999999998 6.375012451171875 0.3224999999999998 Q 6.375012451171875 0.2204999999999998 6.426012451171874 0.14774999999999983 Q 6.477012451171874 0.07499999999999984 6.567012451171874 0.03749999999999987 Q 6.657012451171875 -2.220446049250313e-16 6.771012451171875 -2.220446049250313e-16 Q 6.955512451171875 -2.220446049250313e-16 7.065762451171874 0.08624999999999983 Q 7.176012451171875 0.17249999999999988 7.183512451171874 0.3284999999999998 L 6.864012451171875 0.3284999999999998 Q 6.862512451171875 0.28049999999999986 6.8347624511718745 0.25649999999999984 Q 6.807012451171874 0.23249999999999982 6.7635124511718745 0.23249999999999982 Q 6.730512451171874 0.23249999999999982 6.709512451171874 0.2519999999999998 Q 6.688512451171874 0.27149999999999985 6.688512451171874 0.3074999999999998 Q 6.688512451171874 0.3374999999999998 6.711762451171874 0.35924999999999985 Q 6.735012451171874 0.3809999999999998 6.769512451171875 0.3967499999999998 Q 6.804012451171874 0.41249999999999987 6.871512451171874 0.4364999999999998 Q 6.972012451171874 0.47099999999999986 7.037262451171874 0.5047499999999998 Q 7.102512451171875 0.5384999999999999 7.149762451171875 0.5992499999999998 Q 7.197012451171875 0.6599999999999998 7.197012451171875 0.7529999999999999 Q 7.197012451171875 0.8474999999999998 7.149762451171875 0.9224999999999999 Q 7.102512451171875 0.9974999999999998 7.013262451171874 1.041 Q 6.924012451171874 1.0844999999999998 6.802512451171874 1.0844999999999998 Q 6.618012451171874 1.0844999999999998 6.499512451171874 0.9967499999999998" fill="#000000" fill-rule="nonzero"></path></g><g></g><g clip-path="url(#SvgjsClipPath1186)"><g clip-path="url(#b24860475-076d-4b09-859d-e6dbf5d01f4cb3397bd0-b3bc-466f-88bd-dcd536842b71)"><path d=" M -0.6262259626451128 0.04935246504024904 C -0.6262259626451128 0.03792068953949734 -1.2939410586324998 -0.2474263676336148 -1.1341447184806874 -0.521341649305975 C -1.1341447184806874 -0.521341649305975 -1.020224590447109 -0.20691811966355966 -0.6265241828755674 0.04820928749017395" fill="#ce1e25" transform="matrix(1,0,0,1,0,0)" fill-rule="nonzero"></path></g><g clip-path="url(#b24860475-076d-4b09-859d-e6dbf5d01f4cb3397bd0-b3bc-466f-88bd-dcd536842b71)"><path d=" M -1.772783341998771 0.8009171491570626 C -1.8446544175382797 0.7188071790386197 -1.937997349670505 0.4169586024470311 -1.937997349670505 0.4169586024470311 C -2.1616625225113 -0.41517524726421107 -1.3821148401035157 -0.7553451234691893 -1.178430422703165 -0.828955817019682 C -1.2896665686626534 -0.7720951597463779 -1.4613420146608993 -0.6609087171586315 -1.5624386727849386 -0.4901776352234912 C -1.6478290654383803 -0.36512395191961566 -1.7086659924510763 -0.1914603710516739 -1.5681545605353147 -0.026047549892970534 C -1.5681545605353147 -0.026047549892970534 -1.569049221226678 -0.03320483542387587 -1.5700432886615259 -0.04354313674629495 C -1.5660173155503916 -0.03817517259811587 -1.5629357065023628 -0.03434801297395118 -1.5629357065023628 -0.03434801297395118 C -1.570440915635465 -0.33286646365879896 -1.387631914366922 -0.4851078913057669 -1.2838512741687929 -0.547932953188159 C -1.3243098187671056 -0.4556337918625243 -1.3399663808659614 -0.3554317944298479 -1.2835033505665963 -0.2616415319519415 C -1.1768896181791504 -0.10721315594830805 -1.0592417372648921 -0.030023819632362447 -0.6462067180855573 0.19672296225646102 C -0.6462067180855573 0.19672296225646102 0.07255374068127285 0.540471481226892 -0.17745421918299353 1.1655410842593006 C -0.17745421918299353 1.1655410842593006 -0.31841298144443675 1.5172421427085152 -0.6621615004148675 1.5068541380143539 C -0.6621615004148675 1.5068541380143539 -0.7908435298559386 1.510532187523291 -0.8468592298096222 1.3634102071657908 C -0.85033846583159 1.3547618204826133 -0.8541159220840124 1.346262543914663 -0.8572969378755262 1.337564453859743 L -0.8722079493982455 1.282741634827877 L -0.9048630646330018 1.0964533975373663 C -0.9016323454697457 1.0722478554988177 -0.8960655678345972 1.0558457428238261 -0.8960655678345972 1.0558457428238261 L -0.8623666817932507 0.9826823796190152 C -0.7967582310932844 0.892222243047849 -0.8216099169644835 0.7997739716069872 -0.8216099169644835 0.7997739716069872 L -0.8596329963474187 0.6337150066156323 C -0.8763830326246072 0.545441818401132 -0.9904025674016703 0.20045071513714108 -0.9904025674016703 0.20045071513714108 C -1.056011018101637 0.016647646433750163 -1.058297373201787 0.05969076636266746 -1.058297373201787 0.05969076636266746 C -1.0663990227957982 0.08737554442318363 -1.044330725742173 0.21203160075312022 -1.044330725742173 0.21203160075312022 L -0.9426873305289674 0.6962915516393127 C -0.9321999190913213 0.7340661141635356 -0.9627674927128964 0.7452990761773179 -0.9627674927128964 0.7452990761773179 C -1.004220104746057 0.7524563617082234 -1.0076496373962827 0.7057848956421107 -1.0076496373962827 0.7057848956421107 L -1.1085971854050949 0.2964776293434559 C -1.153727846947193 0.10844977404196088 -1.1919994431888403 0.08369749491424616 -1.1919994431888403 0.08369749491424616 C -1.2234616775017788 0.12341048893642281 -1.1778836856139991 0.31367499596632586 -1.1778836856139991 0.31367499596632586 L -1.0888152434516203 0.7219881948301328 C -1.0751468162224604 0.7637887304654902 -1.1077025247137318 0.771741269944274 -1.1077025247137318 0.771741269944274 C -1.1449800535205308 0.7844653331103282 -1.150099500809998 0.734463741137475 -1.150099500809998 0.734463741137475 L -1.2891198315734873 0.15402776592974077 C -1.3411095584160364 -0.011335351857220122 -1.3263476570085437 0.26933958837210636 -1.3263476570085437 0.26933958837210636 C -1.2879269506516695 0.5590605422585497 -1.2100417671313306 0.9090716860685226 -1.2100417671313306 0.9090716860685226 C -1.2055187603027724 0.9740339929358381 -1.122265612634254 1.022047450038995 -1.122265612634254 1.022047450038995 L -1.037769880672176 1.0799021747471476 C -1.00511476543742 1.117477923784401 -0.995919641665076 1.1524193941193075 -0.987420365097126 1.2001843343637528 L -0.9687816006937262 1.2963603586852948 L -0.9669425759392576 1.3120169207841506 C -0.9631651196868354 1.3290651772917936 -0.9595864769213827 1.345467289966785 -0.956156944271157 1.3615711824113221 L -0.918531491862161 1.5556131456936475 C -0.8546626591731783 1.9332593641923945 -0.9278260223779897 1.9023438669686223 -0.9278260223779897 1.9023438669686223 C -0.9725590569461484 1.9042325950948333 -1.0243996736734706 1.832411222927067 -1.0663990227957978 1.7566632843916512 L -1.1340453117372025 1.5791725438995448 C -1.1247010778496316 1.563317168313719 -1.122265612634254 1.542690269040624 -1.129124677934705 1.5227095136001796 C -1.1342221575397318 1.5075399870464756 -1.1444065321242132 1.494598807617574 -1.1579526335452963 1.4860781286260316 C -1.1593443279540838 1.4845870274737596 -1.1607857257346132 1.4830462229497448 -1.1623265302586274 1.4815551217974732 C -1.1623265302586274 1.4815551217974732 -1.16983173939173 1.451981615610746 -1.1529325929993142 1.3932819335829727 L -1.2475678127968415 1.1315936813592427 C -1.2747058537681915 1.0402388840967132 -1.302291225085223 0.988746190971588 -1.358754255384588 0.7954000748936565 C -1.4097499147922894 0.6208418333343515 -1.4366891422766694 0.43172050385452354 -1.4366891422766694 0.43172050385452354 C -1.4366891422766694 0.43172050385452354 -1.4550296864496148 0.3504057876839588 -1.4929036557173228 0.32386418717351795 C -1.4929036557173228 0.32386418717351795 -1.5271492788478356 0.2917558090279284 -1.5899743407302278 0.35721514961266765 C -1.5899743407302278 0.35721514961266765 -1.6917668460586608 0.43534884999171863 -1.6205916177235458 0.8269120125783374 C -1.6205916177235458 0.8269120125783374 -1.5685521875092538 1.0633012485851863 -1.418795928449406 1.440897763712191 C -1.418795928449406 1.440897763712191 -1.4101475417662286 1.4660973731855869 -1.3885265750582851 1.4676878810813436 C -1.3885265750582851 1.4676878810813436 -1.3362386279852814 1.4617731798439983 -1.3001539801003 1.5318052306290384 L -1.3002533868437847 1.5355329835097185 C -1.3052237240180244 1.5494499275975895 -1.3056213509919639 1.5656532267856118 -1.3002533868437847 1.5814091956279523 C -1.296177710360908 1.5932883014743857 -1.2893683484321992 1.6032289758228657 -1.280968478607734 1.6108832950711949 C -1.2771644077763593 1.615811425481858 -1.2723735581359354 1.6198912656350104 -1.2669024244046352 1.622861807661113 L -1.262777044550016 1.63543676071194 C -1.250450608357901 1.6895637325394124 -1.2640196288435759 1.783950435478228 -1.391757294221541 1.8281367329572205 C -1.505876235742089 1.8663089224553828 -1.676706724420714 1.819438642902301 -1.817118749592991 1.6606860735570783 C -1.817118749592991 1.6606860735570783 -2.3653966432833933 1.151475030056202 -2.147795281795171 0.43927541635936795 C -1.9960011844938845 0.7830736387015416 -1.772783341998771 0.8009171491570626 -1.772783341998771 0.8009171491570626" fill="#ce1e25" transform="matrix(1,0,0,1,0,0)" fill-rule="nonzero"></path></g><g clip-path="url(#b24860475-076d-4b09-859d-e6dbf5d01f4cb3397bd0-b3bc-466f-88bd-dcd536842b71)"><path d=" M -0.6348246459565479 0.4317702072262659 C -0.6348246459565479 0.4317702072262659 -0.23257525844531357 0.6002149340612557 -0.2703001175977944 0.9446095968643378 C -0.2703001175977944 0.9446095968643378 -0.3029552328325502 1.261369184978646 -0.5292546843756927 1.1934743791785287 C -0.5292546843756927 1.1934743791785287 -0.7102246608897671 1.1582843919849104 -0.5568897590644666 0.9546496779563023 C -0.5568897590644666 0.9546496779563023 -0.40604002582628596 0.6932099425912841 -0.6348246459565479 0.4317702072262659" fill="#ea6e14" transform="matrix(1,0,0,1,0,0)" fill-rule="nonzero"></path></g><g clip-path="url(#b24860475-076d-4b09-859d-e6dbf5d01f4cb3397bd0-b3bc-466f-88bd-dcd536842b71)"><path d=" M -2.0403862954598466 0.8436123454837832 C -2.0403862954598466 0.8436123454837832 -2.06573501504847 1.3572469890697332 -1.5584624030455467 1.623607358237249 C -1.5584624030455467 1.623607358237249 -1.8247730688413202 1.4460172110016578 -2.0403862954598466 0.8436123454837832" fill="#ea6e14" transform="matrix(1,0,0,1,0,0)" fill-rule="nonzero"></path></g><g clip-path="url(#b24860475-076d-4b09-859d-e6dbf5d01f4cb3397bd0-b3bc-466f-88bd-dcd536842b71)"><path d=" M -1.8366024713160112 0.2538321363884779 C -1.9405322216293674 0.04890513469456714 -1.8117010820730695 -0.17978007869221013 -1.8117010820730695 -0.17978007869221013 C -1.8117010820730695 -0.17978007869221013 -1.81751637656693 -0.07043266085893252 -1.7549895349149922 -0.007905819206994735 C -1.7549895349149922 -0.007905819206994735 -1.848779797392899 0.03896446034608747 -1.8292463722981362 0.2225687155625089 Z" fill="#ea6e14" transform="matrix(1,0,0,1,0,0)" fill-rule="nonzero"></path></g></g></g><defs><clipPath id="SvgjsClipPath1186"><path d=" M -2.1988586840152973 -0.8289558170196822 h 2.0742189550371597 v 2.7319116340393643 h -2.0742189550371597 Z"></path></clipPath><clipPath id="b24860475-076d-4b09-859d-e6dbf5d01f4cb3397bd0-b3bc-466f-88bd-dcd536842b71"><path d=" M -2.2485440163170134 -0.8786094853903386 L -0.0749161632784241 -0.8786094853903386 L -0.0749161632784241 1.9526933825436723 L -2.2485440163170134 1.9526933825436723 Z"></path></clipPath></defs></svg>